<svg width="512" height="512" viewBox="0 0 512 512" fill="none" xmlns="http://www.w3.org/2000/svg">
  <rect width="512" height="512" rx="100" fill="url(#paint0_linear)"/>
  <path d="M256 360C311.228 360 356 315.228 356 260C356 204.772 311.228 160 256 160C200.772 160 156 204.772 156 260C156 315.228 200.772 360 256 360Z" fill="white" fill-opacity="0.2"/>
  <path d="M256 330C294.66 330 326 298.66 326 260C326 221.34 294.66 190 256 190C217.34 190 186 221.34 186 260C186 298.66 217.34 330 256 330Z" fill="white"/>
  <rect x="220" y="240" width="20" height="20" rx="10" fill="#4F46E5"/>
  <rect x="272" y="240" width="20" height="20" rx="10" fill="#4F46E5"/>
  <path d="M240 290C240 290 248 300 256 300C264 300 272 290 272 290" stroke="#4F46E5" stroke-width="8" stroke-linecap="round"/>
  <path d="M256 120L340 170L256 220L172 170L256 120Z" fill="#1E293B"/>
  <path d="M340 170V230C340 230 330 240 320 240" stroke="#1E293B" stroke-width="8" stroke-linecap="round"/>
  <defs>
    <linearGradient id="paint0_linear" x1="0" y1="0" x2="512" y2="512" gradientUnits="userSpaceOnUse">
      <stop stop-color="#6366F1"/>
      <stop offset="1" stop-color="#8B5CF6"/>
    </linearGradient>
  </defs>
</svg>
